<?xml version="1.0" standalone="no"?>
<!DOCTYPE svg PUBLIC "-//W3C//DTD SVG 20010904//EN"
 "http://www.w3.org/TR/2001/REC-SVG-20010904/DTD/svg10.dtd">
<svg version="1.0" xmlns="http://www.w3.org/2000/svg"
 width="1699.000000pt" height="1699.000000pt" viewBox="0 0 1699.000000 1699.000000"
 preserveAspectRatio="xMidYMid meet">
<metadata>
Created by potrace 1.14, written by Peter Selinger 2001-2017
</metadata>
<g transform="translate(0.000000,1699.000000) scale(0.100000,-0.100000)"
fill="#000000" stroke="none">
<path d="M8547 16984 c-1 -1 -81 -5 -177 -8 -96 -4 -193 -9 -215 -11 -22 -2
-74 -6 -115 -9 -101 -8 -250 -23 -315 -32 -16 -2 -52 -6 -80 -9 -27 -3 -61 -7
-75 -10 -14 -2 -45 -7 -70 -10 -25 -3 -56 -8 -70 -10 -14 -3 -41 -7 -60 -10
-136 -21 -317 -57 -510 -100 -63 -15 -122 -28 -131 -30 -170 -37 -537 -146
-789 -235 -63 -22 -119 -42 -125 -44 -14 -4 -31 -11 -190 -73 -126 -50 -291
-119 -415 -175 -70 -32 -407 -200 -485 -243 -726 -396 -1347 -854 -1919 -1415
-93 -91 -185 -182 -205 -204 -20 -21 -49 -53 -66 -71 -221 -234 -491 -563
-675 -820 -36 -49 -67 -92 -71 -95 -10 -9 -254 -382 -314 -480 -215 -353 -454
-826 -597 -1180 -16 -41 -35 -86 -41 -100 -6 -14 -11 -27 -12 -30 0 -3 -11
-32 -24 -65 -93 -238 -222 -638 -283 -875 -38 -148 -101 -427 -112 -490 -2
-14 -7 -36 -10 -50 -3 -14 -8 -37 -10 -53 -3 -15 -10 -53 -15 -85 -16 -88 -27
-159 -36 -222 -3 -25 -8 -56 -10 -70 -4 -25 -10 -72 -19 -145 -3 -22 -8 -67
-11 -100 -4 -33 -8 -71 -10 -85 -2 -14 -7 -65 -11 -115 -3 -49 -8 -108 -9
-130 -32 -408 -23 -1022 20 -1430 3 -22 7 -67 10 -99 3 -33 8 -73 10 -90 2
-17 7 -53 10 -81 3 -27 8 -59 10 -70 2 -11 7 -42 10 -70 7 -57 31 -208 44
-275 5 -25 15 -74 21 -110 7 -36 28 -135 47 -220 19 -85 36 -163 38 -172 24
-119 171 -611 241 -808 46 -128 153 -403 185 -475 133 -302 149 -337 226 -490
73 -144 113 -219 208 -390 98 -175 301 -497 444 -700 118 -169 389 -518 477
-615 17 -19 67 -75 110 -125 193 -222 560 -587 759 -756 22 -19 45 -39 50 -45
8 -9 193 -162 255 -211 8 -6 40 -31 70 -55 160 -128 405 -302 613 -436 128
-83 424 -262 433 -262 2 0 21 -10 42 -23 60 -38 421 -227 442 -232 3 -1 49
-22 103 -48 55 -26 100 -47 102 -47 2 0 36 -15 77 -34 75 -35 229 -100 238
-101 3 0 66 -25 140 -54 179 -70 387 -141 595 -202 94 -27 184 -54 200 -59 46
-14 301 -77 385 -95 76 -16 240 -49 295 -59 64 -13 323 -55 375 -61 30 -4 62
-8 70 -10 16 -3 103 -13 178 -21 23 -2 61 -6 85 -9 23 -2 74 -7 112 -10 39 -3
93 -8 120 -10 77 -7 314 -16 484 -19 147 -3 155 -2 180 20 l26 22 0 1489 c1
818 -1 1498 -3 1511 -8 42 -44 55 -160 58 -152 3 -363 14 -371 18 -3 2 -44 6
-91 10 -47 3 -96 8 -110 10 -14 3 -47 7 -75 11 -27 3 -57 8 -65 10 -8 2 -35 6
-60 9 -49 7 -49 7 -200 37 -58 11 -116 23 -130 25 -14 3 -52 12 -85 21 -33 8
-67 17 -75 19 -520 125 -1131 399 -1631 730 -74 48 -136 91 -139 94 -3 3 -66
51 -140 106 -399 301 -798 708 -1096 1119 -338 466 -582 944 -766 1500 -22 66
-41 127 -43 135 -2 8 -14 56 -28 105 -30 108 -39 144 -44 169 -2 11 -10 45
-18 75 -8 31 -17 72 -20 91 -4 19 -13 71 -21 115 -25 136 -30 167 -39 255 -4
36 -9 68 -11 71 -1 3 -6 43 -10 90 -3 46 -8 95 -10 109 -6 42 -18 339 -18 450
0 110 12 403 18 455 2 17 7 64 11 105 7 85 9 103 35 280 11 75 18 116 25 146
3 12 7 39 11 60 5 32 21 107 59 266 89 382 283 878 499 1275 151 280 416 666
601 878 14 17 47 55 73 85 115 134 279 300 432 438 161 145 170 153 266 227
49 38 91 72 94 75 23 27 452 315 510 344 8 4 24 12 35 19 178 107 452 242 695
341 187 77 606 211 750 240 14 3 57 13 95 22 39 9 80 17 92 19 11 2 29 5 40 9
10 3 36 8 58 11 23 3 52 7 65 10 13 3 40 7 60 10 20 3 45 7 57 9 11 3 65 9
119 16 55 6 115 13 134 15 43 5 148 14 255 20 87 5 536 6 600 1 22 -2 81 -7
130 -11 50 -4 102 -8 118 -10 15 -2 55 -6 90 -10 64 -7 85 -9 152 -20 22 -3
54 -7 70 -10 56 -7 210 -36 271 -50 34 -8 74 -16 88 -19 14 -3 34 -7 44 -10 9
-3 28 -7 42 -10 93 -16 419 -117 625 -193 813 -301 1571 -815 2145 -1453 47
-52 87 -97 90 -100 51 -51 306 -389 385 -510 50 -77 116 -181 130 -205 6 -10
29 -20 55 -24 25 -4 756 -6 1624 -6 l1579 1 23 28 c13 15 24 33 24 41 0 29
-146 412 -225 590 -129 290 -285 599 -434 860 -127 221 -354 567 -521 793
-329 448 -793 956 -1205 1317 -44 38 -82 72 -85 75 -29 31 -377 308 -490 390
-41 30 -77 57 -80 60 -12 12 -438 300 -445 300 -2 0 -48 27 -101 61 -394 245
-903 496 -1374 676 -161 62 -547 191 -661 222 -41 11 -114 31 -164 45 -99 29
-374 93 -530 125 -157 32 -305 56 -515 86 -14 2 -43 6 -65 9 -98 14 -380 42
-520 51 -206 13 -749 26 -758 19z"/>
<path d="M9647 8574 c-1 -1 -24 -4 -52 -8 -169 -20 -325 -96 -451 -221 -98
-98 -160 -202 -205 -345 l-24 -75 0 -1129 0 -1128 22 -24 c15 -16 33 -24 58
-24 19 -1 168 -1 330 -1 l295 -1 0 -2773 c0 -2052 3 -2781 11 -2799 7 -14 24
-29 38 -34 14 -4 664 -8 1444 -7 l1419 0 23 27 22 26 -1 4198 -1 4199 -25 35
c-29 41 -46 57 -80 72 -18 8 -408 12 -1423 12 -769 1 -1399 0 -1400 0z"/>
<path d="M13807 8574 c-1 -1 -31 -5 -66 -9 -75 -8 -194 -46 -260 -83 -199
-110 -333 -279 -393 -498 -21 -79 -21 -80 -21 -1193 1 -1178 0 -1152 47 -1167
11 -4 163 -7 338 -7 175 0 319 -2 319 -6 1 -3 2 -1256 3 -2783 l1 -2777 23
-23 22 -23 1418 0 c823 -1 1429 3 1445 8 15 5 32 17 37 27 7 12 10 1495 10
4210 0 4155 0 4191 -20 4230 -20 40 -57 71 -100 86 -19 6 -2796 14 -2803 8z"/>
</g>
</svg>
